# xmcd
#
# Track frame offsets: 
#        150
#        19932
#        38445
#        64820
#        82232
#        98782
#        110642
#        130795
#        147255
#        165630
#        191305
#        213372
#
# Disc length: 3168 seconds
#
# Revision: 1
# Processed by: cddbd v1.5.2PL0 Copyright (c) Steve Scherf et al.
# Submitted via: ExactAudioCopy v0.99pb4
#
DISCID=a20c5e0c
DTITLE=Johnnie Marshall - With All My Might
DYEAR=1999
DGENRE=Blues
TTITLE0=That's When The Blues Puts Its Hook In You
TTITLE1=The Blues
TTITLE2=Heart Of Gold
TTITLE3=Brother Dave C.
TTITLE4=You Won't Be Sad And Blue
TTITLE5=Found Another Woman
TTITLE6=Work Hard For My Money
TTITLE7=South Georgia Boogie
TTITLE8=With All Your Might
TTITLE9=Tired Of The Way You Treat Me
TTITLE10=Lookin' Out My Window
TTITLE11=Please Open Up The Door
EXTD=
EXTT0=
EXTT1=
EXTT2=
EXTT3=
EXTT4=
EXTT5=
EXTT6=
EXTT7=
EXTT8=
EXTT9=
EXTT10=
EXTT11=
PLAYORDER=
